# xmcd
# Copyright (C) 1995-1998 Ti Kan
#
# Track frame offsets:
#       150
#       13584
#       26375
#       39011
#       53276
#       65832
#       76800
#       88840
#       102555
#       115612
#       129654
#       142188
#       156879
#       172853
#       184769
#       198884
#
# Disc length: 2840 seconds
#
# Revision: 0
# Processed by: cddbd v1.5.2PL0 Copyright (c) Steve Scherf et al.
# Submitted via: CD-Transfer v1.0
#
DISCID=c60b1610
DTITLE=Florian Fesl - 
DYEAR=2008
DGENRE=
TTITLE0=Sommer Ohne Ende
TTITLE1=Frisch Und Echt
TTITLE2=Mit Der Heimat Im Herzen
TTITLE3=Mein Großvater War A Musikant
TTITLE4=Busserlzeit
TTITLE5=A Fesl Musi
TTITLE6=I Bin A Echter Bayer
TTITLE7=Immer Wieder Schön
TTITLE8=A Musi Die Von Herzen Kommt
TTITLE9=Im Himmel Ist Die Hölle Los
TTITLE10=Musikant Zu Sein Bedarf Es Wenig
TTITLE11=Bayrisch, Geht Guat
TTITLE12=Kleines Herz Im Großen Himmel
TTITLE13=Servus München
TTITLE14=Is Es Niet Schön, Wenns Schön Is
TTITLE15=Starke Berge, Starkes Land
EXTD=
EXTT0=
EXTT1=
EXTT2=
EXTT3=
EXTT4=
EXTT5=
EXTT6=
EXTT7=
EXTT8=
EXTT9=
EXTT10=
EXTT11=
EXTT12=
EXTT13=
EXTT14=
EXTT15=
PLAYORDER=
